<?xml version="1.0" encoding="UTF-8" standalone="no"?>
<!-- Uploaded to: SVG Repo, www.svgrepo.com, Generator: SVG Repo Mixer Tools -->

<svg
   fill="#000000"
   height="154.21445"
   width="134.65211"
   version="1.1"
   id="Capa_1"
   viewBox="0 0 10.66355 12.212756"
   xml:space="preserve"
   sodipodi:docname="F-letter.svg"
   xmlns:inkscape="http://www.inkscape.org/namespaces/inkscape"
   xmlns:sodipodi="http://sodipodi.sourceforge.net/DTD/sodipodi-0.dtd"
   xmlns="http://www.w3.org/2000/svg"
   xmlns:svg="http://www.w3.org/2000/svg"><defs
   id="defs22" /><sodipodi:namedview
   id="namedview20"
   pagecolor="#505050"
   bordercolor="#eeeeee"
   borderopacity="1"
   inkscape:showpageshadow="0"
   inkscape:pageopacity="0"
   inkscape:pagecheckerboard="0"
   inkscape:deskcolor="#505050"
   showgrid="false" />

<text
   xml:space="preserve"
   style="font-size:0.95032px;white-space:pre;inline-size:1.84924;fill:#000000;fill-opacity:1;stroke:#ffffff;stroke-width:0.540653;stroke-miterlimit:5.1;stroke-dasharray:none;stroke-opacity:0;paint-order:stroke markers fill"
   x="7.7437429"
   y="9.4716854"
   id="text1651"
   transform="matrix(9.4778702,0,0,9.4778702,-80.968154,-80.590861)"><tspan
     x="7.7437429"
     y="9.4716854"
     id="tspan10851">F</tspan></text><text
   xml:space="preserve"
   style="font-style:normal;font-variant:normal;font-weight:normal;font-stretch:normal;font-size:0.95032px;font-family:'Kozuka Gothic Pr6N';-inkscape-font-specification:'Kozuka Gothic Pr6N, Normal';font-variant-ligatures:normal;font-variant-caps:normal;font-variant-numeric:normal;font-variant-east-asian:normal;white-space:pre;inline-size:1.84924;fill:#000000;fill-opacity:1;stroke:#ffffff;stroke-width:0.540653;stroke-linecap:square;stroke-linejoin:bevel;stroke-miterlimit:5.1;stroke-dasharray:none;stroke-opacity:0;paint-order:stroke fill markers"
   x="7.7437429"
   y="9.4716854"
   id="text1651-0"
   transform="matrix(9.4778702,0,0,9.4778702,-72.448095,-80.228853)"><tspan
     x="7.7437429"
     y="9.4716854"
     id="tspan10853">С</tspan></text><g
   style="fill:#000000"
   id="g1867-2"
   transform="matrix(0.01989876,0,0,0.01989876,11.496543,1.3876003)"><g
     id="g1857-1">
	<path
   d="m -465.81124,109.75801 c 0,-27.876001 -22.679,-50.556001 -50.556,-50.556001 -27.877,0 -50.555,22.68 -50.555,50.556001 0,27.877 22.679,50.556 50.556,50.556 27.877,0 50.555,-22.679 50.555,-50.556 z m -50.555,20.556 c -11.335,0 -20.556,-9.221 -20.556,-20.556 0,-11.335001 9.221,-20.556001 20.556,-20.556001 11.335,0 20.556,9.221 20.556,20.556001 0,11.335 -9.222,20.556 -20.556,20.556 z"
   id="path1853-4" />
	
</g></g></svg>
